<svg xmlns="http://www.w3.org/2000/svg" width="131.836" height="32.133" viewBox="0 0 131.836 32.133">
  <g id="ak-gatsby-logo" transform="translate(-67.164 -694.219)">
    <path id="Path_125" data-name="Path 125" d="M9.8,0h3.664L7.6-12.75H6.016L.164,0H3.82l.641-1.469h4.7ZM5.516-3.914,6.813-6.9,8.1-3.914Zm16.734-8.7v6.141L15.8-12.719H14.719V.008h3.344V-6.148L24.539.125H25.6V-12.609ZM31.719.172c2.523,0,4.758-1.492,4.758-3.891,0-1.859-1.3-3.062-3.273-3.891-1.359-.57-2.25-.758-2.25-1.336,0-.43.492-.781,1.18-.781a2.376,2.376,0,0,1,1.945.953l1.93-1.859a4.035,4.035,0,0,0-3.914-2.148c-2.391,0-4.461,1.555-4.461,3.734,0,1.9,1.367,2.945,2.961,3.633,1.234.547,2.523,1.117,2.523,1.766,0,.516-.7.773-1.406.773a3.069,3.069,0,0,1-2.555-1.242L27.133-2.133C27.766-.742,29.648.172,31.719.172ZM45.094-12.594v4.727H41.352v-4.727H38.008V0h3.344V-4.742h3.742V0H48.43V-12.594ZM55.734.352a4.981,4.981,0,0,0,5.227-4.93v-8.016H57.594v8.008a1.816,1.816,0,0,1-1.867,1.742,1.787,1.787,0,0,1-1.852-1.742v-8.008H50.508v8.016A4.981,4.981,0,0,0,55.734.352ZM66.383-3.141v-9.453H63.039V0H71.2V-3.141Z" transform="translate(67 707)" fill="#653df1"/>
    <path id="Path_126" data-name="Path 126" d="M11.672,0,7.336-6.453,11.2-12.594H7.352L4.43-7.9v-4.7H1.094V0H4.43V-4.789L7.617,0Zm9.906,0h3.664L19.383-12.75H17.8L11.945,0H15.6l.641-1.469h4.7ZM17.3-3.914l1.3-2.984,1.289,2.984ZM30.453.352a4.981,4.981,0,0,0,5.227-4.93v-8.016H32.313v8.008a1.816,1.816,0,0,1-1.867,1.742,1.787,1.787,0,0,1-1.852-1.742v-8.008H25.227v8.016A4.981,4.981,0,0,0,30.453.352ZM41.688.172c2.523,0,4.758-1.492,4.758-3.891,0-1.859-1.3-3.062-3.273-3.891-1.359-.57-2.25-.758-2.25-1.336,0-.43.492-.781,1.18-.781a2.376,2.376,0,0,1,1.945.953l1.93-1.859a4.035,4.035,0,0,0-3.914-2.148c-2.391,0-4.461,1.555-4.461,3.734,0,1.9,1.367,2.945,2.961,3.633,1.234.547,2.523,1.117,2.523,1.766,0,.516-.7.773-1.406.773a3.069,3.069,0,0,1-2.555-1.242L37.1-2.133C37.734-.742,39.617.172,41.688.172ZM55.063-12.594v4.727H51.32v-4.727H47.977V0H51.32V-4.742h3.742V0H58.4V-12.594ZM69.289,0h3.664L67.094-12.75H65.508L59.656,0h3.656l.641-1.469h4.7ZM65.008-3.914,66.3-6.9l1.289,2.984Zm12.547.773v-9.453H74.211V0h8.164V-3.141Z" transform="translate(114 726)" fill="#653df1"/>
    <path id="Union_1" data-name="Union 1" d="M445-1856h53v4H445Zm53,0h4v21h-4Z" transform="translate(-303 2554.5)" fill="#c4066d"/>
    <path id="Union_2" data-name="Union 2" d="M449-1843.5h-4V-1856h4v8.5h36v4Z" transform="translate(-373.5 2565)" fill="#c4066d"/>
  </g>
</svg>
