<svg xmlns="http://www.w3.org/2000/svg" width="727.97" height="181.035" viewBox="0 0 727.97 181.035">
  <g id="ak-logo-gatsby.svg" transform="translate(-476.582 -270.965)">
    <path id="Path_125" data-name="Path 125" d="M54.435,59.228H75.078L42.067-12.605H33.132L.164,59.228h20.6l3.609-8.275h26.5ZM30.315,37.176l7.307-16.814,7.263,16.814ZM124.6-11.813v34.6L88.239-12.429H82.165v71.7H101V24.588l36.489,35.344h5.986V-11.813ZM177.942,60.2c14.217,0,26.805-8.407,26.805-21.92,0-10.476-7.351-17.254-18.442-21.92-7.659-3.213-12.676-4.269-12.676-7.527,0-2.421,2.773-4.4,6.646-4.4,3.389,0,8.847,1.629,10.96,5.37L202.106-.677c-2.773-7-11.224-12.1-22.052-12.1-13.469,0-25.133,8.759-25.133,21.039,0,10.7,7.7,16.594,16.682,20.467,6.954,3.081,14.217,6.294,14.217,9.947,0,2.905-3.917,4.358-7.923,4.358-5.942,0-11.444-2.641-14.393-7l-11.4,11.18C155.67,55.046,166.278,60.2,177.942,60.2ZM253.3-11.725V14.9H232.213V-11.725H213.374V59.228h18.839V32.511H253.3V59.228h18.795V-11.725Zm59.949,72.933c16.242,0,29.446-11.488,29.446-27.774v-45.16H323.721V33.391c0,5.81-5.194,9.815-10.52,9.815-5.37,0-10.432-3.917-10.432-9.815V-11.725H283.8v45.16C283.8,49.721,297,61.209,313.245,61.209Zm59.993-19.675V-11.725H354.4V59.228h46V41.534Z" transform="translate(476.418 283.746)" fill="#653df1"/>
    <path id="Path_126" data-name="Path 126" d="M60.691,59.228,36.262,22.871l21.744-34.6H36.35L19.888,14.728V-11.725H1.094V59.228H19.888V32.246L37.847,59.228Zm55.811,0h20.643L104.134-12.605H95.2L62.231,59.228h20.6l3.609-8.275h26.5ZM92.382,37.176l7.307-16.814,7.263,16.814ZM166.5,61.209c16.242,0,29.446-11.488,29.446-27.774v-45.16H176.979V33.391c0,5.81-5.194,9.815-10.52,9.815-5.37,0-10.432-3.917-10.432-9.815V-11.725H137.057v45.16C137.057,49.721,150.262,61.209,166.5,61.209ZM229.8,60.2c14.217,0,26.805-8.407,26.805-21.92,0-10.476-7.351-17.254-18.442-21.92-7.659-3.213-12.676-4.269-12.676-7.527,0-2.421,2.773-4.4,6.646-4.4,3.389,0,8.847,1.629,10.96,5.37L253.962-.677c-2.773-7-11.224-12.1-22.052-12.1-13.469,0-25.133,8.759-25.133,21.039,0,10.7,7.7,16.594,16.682,20.467,6.954,3.081,14.217,6.294,14.217,9.947,0,2.905-3.917,4.358-7.923,4.358-5.942,0-11.444-2.641-14.393-7l-11.4,11.18C207.526,55.046,218.133,60.2,229.8,60.2Zm75.354-71.921V14.9H284.068V-11.725H265.23V59.228h18.839V32.511h21.083V59.228h18.795V-11.725ZM385.3,59.228h20.643L372.935-12.605H364L331.033,59.228h20.6l3.609-8.275h26.5Zm-24.12-22.052,7.307-16.814,7.263,16.814Zm70.689,4.358V-11.725H413.033V59.228h46V41.534Z" transform="translate(745.522 390.792)" fill="#653df1"/>
    <path id="Union_3" data-name="Union 3" d="M720-2792h12v71H720Zm-275,0H720v12H445Z" transform="translate(441.5 3090.5)" fill="#c4066d"/>
    <path id="Union_4" data-name="Union 4" d="M439-2792h12v60.5H670v12H439Z" transform="translate(68.5 3144)" fill="#c4066d"/>
  </g>
</svg>
